<mxfile host="app.diagrams.net" agent="Mozilla/5.0 (Windows NT 10.0; Win64; x64) AppleWebKit/537.36 (KHTML, like Gecko) Chrome/130.0.0.0 Safari/537.36 Edg/130.0.0.0" version="24.8.3">
  <diagram id="RbzEQTpv62KQ6mG0-Ik-" name="Trang-1">
    <mxGraphModel dx="2685" dy="3656" grid="1" gridSize="10" guides="1" tooltips="1" connect="1" arrows="1" fold="1" page="1" pageScale="1" pageWidth="827" pageHeight="1169" math="0" shadow="0">
      <root>
        <mxCell id="0" />
        <mxCell id="1" parent="0" />
        <mxCell id="zn25crVG2s-2xmktV4Ex-100" value="" style="edgeStyle=orthogonalEdgeStyle;rounded=0;orthogonalLoop=1;jettySize=auto;html=1;" edge="1" parent="1" source="zn25crVG2s-2xmktV4Ex-1" target="zn25crVG2s-2xmktV4Ex-49">
          <mxGeometry relative="1" as="geometry" />
        </mxCell>
        <mxCell id="zn25crVG2s-2xmktV4Ex-1" value="Header" style="rounded=1;whiteSpace=wrap;html=1;" vertex="1" parent="1">
          <mxGeometry x="-827" y="-840" width="120" height="40" as="geometry" />
        </mxCell>
        <mxCell id="zn25crVG2s-2xmktV4Ex-42" value="" style="endArrow=none;html=1;rounded=0;" edge="1" parent="1">
          <mxGeometry width="50" height="50" relative="1" as="geometry">
            <mxPoint x="-680" y="-480" as="sourcePoint" />
            <mxPoint x="-680" y="-1160" as="targetPoint" />
          </mxGeometry>
        </mxCell>
        <mxCell id="zn25crVG2s-2xmktV4Ex-43" value="" style="endArrow=classic;html=1;rounded=0;" edge="1" parent="1" target="zn25crVG2s-2xmktV4Ex-44">
          <mxGeometry width="50" height="50" relative="1" as="geometry">
            <mxPoint x="-680" y="-1160" as="sourcePoint" />
            <mxPoint x="-600" y="-1160" as="targetPoint" />
            <Array as="points">
              <mxPoint x="-640" y="-1160" />
            </Array>
          </mxGeometry>
        </mxCell>
        <mxCell id="zn25crVG2s-2xmktV4Ex-79" style="edgeStyle=orthogonalEdgeStyle;rounded=0;orthogonalLoop=1;jettySize=auto;html=1;" edge="1" parent="1">
          <mxGeometry relative="1" as="geometry">
            <mxPoint x="-500" y="-1160.3333333333333" as="targetPoint" />
            <mxPoint x="-550" y="-1160" as="sourcePoint" />
          </mxGeometry>
        </mxCell>
        <mxCell id="zn25crVG2s-2xmktV4Ex-44" value="Trang chủ" style="rounded=1;whiteSpace=wrap;html=1;" vertex="1" parent="1">
          <mxGeometry x="-640" y="-1180" width="80" height="40" as="geometry" />
        </mxCell>
        <mxCell id="zn25crVG2s-2xmktV4Ex-46" value="" style="endArrow=classic;html=1;rounded=0;" edge="1" parent="1" target="zn25crVG2s-2xmktV4Ex-47">
          <mxGeometry width="50" height="50" relative="1" as="geometry">
            <mxPoint x="-680" y="-1000" as="sourcePoint" />
            <mxPoint x="-640" y="-1000" as="targetPoint" />
          </mxGeometry>
        </mxCell>
        <mxCell id="zn25crVG2s-2xmktV4Ex-77" style="edgeStyle=orthogonalEdgeStyle;rounded=0;orthogonalLoop=1;jettySize=auto;html=1;" edge="1" parent="1">
          <mxGeometry relative="1" as="geometry">
            <mxPoint x="-500" y="-1000.3333333333335" as="targetPoint" />
            <mxPoint x="-550" y="-1000" as="sourcePoint" />
            <Array as="points">
              <mxPoint x="-525" y="-1000" />
            </Array>
          </mxGeometry>
        </mxCell>
        <mxCell id="zn25crVG2s-2xmktV4Ex-47" value="Thực đơn" style="rounded=1;whiteSpace=wrap;html=1;" vertex="1" parent="1">
          <mxGeometry x="-640" y="-1020" width="80" height="40" as="geometry" />
        </mxCell>
        <mxCell id="zn25crVG2s-2xmktV4Ex-48" value="" style="endArrow=classic;html=1;rounded=0;" edge="1" parent="1" target="zn25crVG2s-2xmktV4Ex-49">
          <mxGeometry width="50" height="50" relative="1" as="geometry">
            <mxPoint x="-680" y="-820" as="sourcePoint" />
            <mxPoint x="-640" y="-820" as="targetPoint" />
          </mxGeometry>
        </mxCell>
        <mxCell id="zn25crVG2s-2xmktV4Ex-49" value="Đặt món" style="rounded=1;whiteSpace=wrap;html=1;" vertex="1" parent="1">
          <mxGeometry x="-640" y="-840" width="80" height="40" as="geometry" />
        </mxCell>
        <mxCell id="zn25crVG2s-2xmktV4Ex-50" value="" style="endArrow=none;html=1;rounded=0;" edge="1" parent="1">
          <mxGeometry width="50" height="50" relative="1" as="geometry">
            <mxPoint x="-700" y="-820" as="sourcePoint" />
            <mxPoint x="-680" y="-820" as="targetPoint" />
          </mxGeometry>
        </mxCell>
        <mxCell id="zn25crVG2s-2xmktV4Ex-52" value="" style="endArrow=classic;html=1;rounded=0;" edge="1" parent="1">
          <mxGeometry width="50" height="50" relative="1" as="geometry">
            <mxPoint x="-550" y="-820" as="sourcePoint" />
            <mxPoint x="-500" y="-820" as="targetPoint" />
          </mxGeometry>
        </mxCell>
        <mxCell id="zn25crVG2s-2xmktV4Ex-55" value="" style="shape=curlyBracket;whiteSpace=wrap;html=1;rounded=1;labelPosition=left;verticalLabelPosition=middle;align=right;verticalAlign=middle;size=0.5;" vertex="1" parent="1">
          <mxGeometry x="-494" y="-870" width="20" height="100" as="geometry" />
        </mxCell>
        <mxCell id="zn25crVG2s-2xmktV4Ex-71" value="" style="shape=curlyBracket;whiteSpace=wrap;html=1;rounded=1;labelPosition=left;verticalLabelPosition=middle;align=right;verticalAlign=middle;size=0.5;" vertex="1" parent="1">
          <mxGeometry x="-350" y="-912.5" width="20" height="85" as="geometry" />
        </mxCell>
        <mxCell id="zn25crVG2s-2xmktV4Ex-72" value="" style="shape=table;startSize=0;container=1;collapsible=0;childLayout=tableLayout;fontSize=11;fillColor=none;strokeColor=none;" vertex="1" parent="1">
          <mxGeometry x="-270" y="-930" width="60" height="60" as="geometry" />
        </mxCell>
        <mxCell id="zn25crVG2s-2xmktV4Ex-73" value="&lt;ul&gt;&lt;li&gt;Combo&lt;/li&gt;&lt;li&gt;Gà giòn&lt;/li&gt;&lt;li&gt;Gà nướng&lt;/li&gt;&lt;li&gt;Món ăn kèm&lt;/li&gt;&lt;li&gt;Đồ uống&lt;/li&gt;&lt;/ul&gt;" style="text;strokeColor=none;fillColor=none;html=1;whiteSpace=wrap;verticalAlign=middle;overflow=hidden;" vertex="1" parent="1">
          <mxGeometry x="-350" y="-920" width="130" height="100" as="geometry" />
        </mxCell>
        <mxCell id="zn25crVG2s-2xmktV4Ex-76" value="" style="endArrow=classic;html=1;rounded=0;" edge="1" parent="1">
          <mxGeometry width="50" height="50" relative="1" as="geometry">
            <mxPoint x="-380" y="-770" as="sourcePoint" />
            <mxPoint x="-320" y="-770" as="targetPoint" />
          </mxGeometry>
        </mxCell>
        <mxCell id="zn25crVG2s-2xmktV4Ex-80" value="" style="endArrow=classic;html=1;rounded=0;" edge="1" parent="1">
          <mxGeometry width="50" height="50" relative="1" as="geometry">
            <mxPoint x="-680" y="-640" as="sourcePoint" />
            <mxPoint x="-640" y="-640" as="targetPoint" />
          </mxGeometry>
        </mxCell>
        <mxCell id="zn25crVG2s-2xmktV4Ex-81" value="Đặt bàn" style="rounded=1;whiteSpace=wrap;html=1;" vertex="1" parent="1">
          <mxGeometry x="-640" y="-660" width="80" height="40" as="geometry" />
        </mxCell>
        <mxCell id="zn25crVG2s-2xmktV4Ex-82" value="" style="endArrow=classic;html=1;rounded=0;" edge="1" parent="1" target="zn25crVG2s-2xmktV4Ex-83">
          <mxGeometry width="50" height="50" relative="1" as="geometry">
            <mxPoint x="-680" y="-480" as="sourcePoint" />
            <mxPoint x="-640" y="-480" as="targetPoint" />
          </mxGeometry>
        </mxCell>
        <mxCell id="zn25crVG2s-2xmktV4Ex-83" value="Liên hệ" style="rounded=1;whiteSpace=wrap;html=1;" vertex="1" parent="1">
          <mxGeometry x="-640" y="-500" width="80" height="40" as="geometry" />
        </mxCell>
        <mxCell id="zn25crVG2s-2xmktV4Ex-84" value="" style="endArrow=classic;html=1;rounded=0;" edge="1" parent="1">
          <mxGeometry width="50" height="50" relative="1" as="geometry">
            <mxPoint x="-550" y="-640" as="sourcePoint" />
            <mxPoint x="-490" y="-640" as="targetPoint" />
          </mxGeometry>
        </mxCell>
        <mxCell id="zn25crVG2s-2xmktV4Ex-88" value="Giới thiệu" style="rounded=1;whiteSpace=wrap;html=1;" vertex="1" parent="1">
          <mxGeometry x="-500" y="-1180" width="80" height="40" as="geometry" />
        </mxCell>
        <mxCell id="zn25crVG2s-2xmktV4Ex-90" value="Danh sách món ăn" style="rounded=1;whiteSpace=wrap;html=1;" vertex="1" parent="1">
          <mxGeometry x="-470" y="-890" width="113" height="40" as="geometry" />
        </mxCell>
        <mxCell id="zn25crVG2s-2xmktV4Ex-91" value="Giỏ hàng" style="rounded=1;whiteSpace=wrap;html=1;" vertex="1" parent="1">
          <mxGeometry x="-470" y="-790" width="80" height="40" as="geometry" />
        </mxCell>
        <mxCell id="zn25crVG2s-2xmktV4Ex-92" value="Gọi món" style="rounded=1;whiteSpace=wrap;html=1;" vertex="1" parent="1">
          <mxGeometry x="-320" y="-790" width="80" height="40" as="geometry" />
        </mxCell>
        <mxCell id="zn25crVG2s-2xmktV4Ex-94" value="" style="endArrow=none;html=1;rounded=0;" edge="1" parent="1">
          <mxGeometry width="50" height="50" relative="1" as="geometry">
            <mxPoint x="-490" y="-960" as="sourcePoint" />
            <mxPoint x="-490" y="-1040" as="targetPoint" />
          </mxGeometry>
        </mxCell>
        <mxCell id="zn25crVG2s-2xmktV4Ex-96" style="edgeStyle=orthogonalEdgeStyle;rounded=0;orthogonalLoop=1;jettySize=auto;html=1;exitX=1;exitY=0.5;exitDx=0;exitDy=0;entryX=0;entryY=0.5;entryDx=0;entryDy=0;" edge="1" parent="1" source="zn25crVG2s-2xmktV4Ex-95" target="zn25crVG2s-2xmktV4Ex-1">
          <mxGeometry relative="1" as="geometry">
            <mxPoint x="-860" y="-820" as="targetPoint" />
          </mxGeometry>
        </mxCell>
        <mxCell id="zn25crVG2s-2xmktV4Ex-99" style="edgeStyle=orthogonalEdgeStyle;rounded=0;orthogonalLoop=1;jettySize=auto;html=1;exitX=1;exitY=0.5;exitDx=0;exitDy=0;entryX=0;entryY=0.5;entryDx=0;entryDy=0;" edge="1" parent="1" source="zn25crVG2s-2xmktV4Ex-95" target="zn25crVG2s-2xmktV4Ex-97">
          <mxGeometry relative="1" as="geometry" />
        </mxCell>
        <mxCell id="zn25crVG2s-2xmktV4Ex-95" value="Do Do Chicken" style="rounded=1;whiteSpace=wrap;html=1;" vertex="1" parent="1">
          <mxGeometry x="-1020" y="-540" width="120" height="60" as="geometry" />
        </mxCell>
        <mxCell id="zn25crVG2s-2xmktV4Ex-97" value="Footer" style="rounded=1;whiteSpace=wrap;html=1;" vertex="1" parent="1">
          <mxGeometry x="-827" y="-200" width="120" height="40" as="geometry" />
        </mxCell>
      </root>
    </mxGraphModel>
  </diagram>
</mxfile>
